<svg xmlns="http://www.w3.org/2000/svg" xmlns:xlink="http://www.w3.org/1999/xlink" id="Layer_1" width="232.88" height="189.261" x="0" y="0" enable-background="new 3.559 0 232.88 189.261" version="1.1" viewBox="3.559 0 232.88 189.261" xml:space="preserve"><path fill="#FFF" d="M212.599,47.137c3.021,67.199-47.096,142.124-135.802,142.124c-26.981,0-52.096-7.911-73.238-21.466	c25.347,2.986,50.646-4.044,70.734-19.786c-20.907-0.386-38.557-14.198-44.632-33.181c7.483,1.432,14.851,1.013,21.572-0.816	c-22.976-4.617-38.839-25.316-38.318-47.453c6.438,3.58,13.81,5.729,21.642,5.977C13.279,58.314,7.254,30.218,19.772,8.747	c23.563,28.905,58.771,47.928,98.479,49.92C111.28,28.781,133.953,0,164.79,0c13.742,0,26.16,5.802,34.874,15.088	c10.887-2.143,21.108-6.119,30.344-11.594c-3.567,11.157-11.146,20.521-21.011,26.433c9.665-1.153,18.874-3.722,27.441-7.523	C230.032,31.986,221.935,40.402,212.599,47.137z"/></svg>